<mxfile host="app.diagrams.net" modified="2023-05-08T04:46:37.334Z" agent="Mozilla/5.0 (Windows NT 10.0; Win64; x64; rv:109.0) Gecko/20100101 Firefox/112.0" version="21.2.9" etag="VzkWRqdeMkXAiLsEHwwa" type="github">
  <diagram name="Page-1" id="i3L15RiAqSjlXNnS6z8H">
    <mxGraphModel>
      <root>
        <mxCell id="0" />
        <mxCell id="1" parent="0" />
      </root>
    </mxGraphModel>
  </diagram>
</mxfile>
